# xmcd
#
# Track frame offsets: 
#        150
#        4180
#        6228
#        9600
#        12658
#        17300
#        26464
#        32128
#        36407
#        42598
#        48254
#        56958
#        59609
#        64372
#        67469
#        71768
#        78157
#        82737
#        90738
#        96161
#        99622
#        102697
#        104608
#        110345
#        113997
#        119077
#        125566
#        134880
#        146834
#
# Disc length: 2008 seconds
#
# Revision: 1
# Processed by: cddbd v1.5.1PL0 Copyright (c) Steve Scherf et al.
# Submitted via: ExactAudioCopy v0.95a5
#
DISCID=b507d61d
DTITLE=Forgarður Helvítis - Forgarður Helvítis 1993-1999
DYEAR=2000
DGENRE=Grind Core
TTITLE0=Freedom is shit
TTITLE1=Ljóð til þín
TTITLE2=Leikur trúðanna
TTITLE3=Legsteinn grafar minnar
TTITLE4=Krossfest börn
TTITLE5=Vítahringur Ömurleikans
TTITLE6=Eðlislægur fasismi
TTITLE7=Vængbrotnir Englar
TTITLE8=Gelding Óskhyggjunnar
TTITLE9=Þar sem hamingjan ræður ríkjum
TTITLE10=Guð er stærsta lygi í heimi
TTITLE11=Bónusfólk
TTITLE12=Eðlileg hegðun er hundleiðinleg
TTITLE13=Hóra
TTITLE14=Heilalínuritið er á núlli
TTITLE15=Samansaumum augu
TTITLE16=Dautt fólk er ekki kúl
TTITLE17=Örlög
TTITLE18=Brennið Kirkjur
TTITLE19=Hey Tussa
TTITLE20=Takk
TTITLE21=Vonbrigði
TTITLE22=Upprisa
TTITLE23=Viðurkenning
TTITLE24=Þú ert ekki til
TTITLE25=Kjöt með gati
TTITLE26=Aumt Stolt
TTITLE27=Messirass
TTITLE28=Mannleg Grimmd
EXTD=1-10 Helvíti Sessions (1999]\n11-26 Burn Chuches demo (1995]\n27-
EXTD=29 Messiarse demo (1993)
EXTT0=
EXTT1=
EXTT2=
EXTT3=
EXTT4=
EXTT5=
EXTT6=
EXTT7=
EXTT8=
EXTT9=
EXTT10=
EXTT11=
EXTT12=
EXTT13=
EXTT14=
EXTT15=
EXTT16=
EXTT17=
EXTT18=
EXTT19=
EXTT20=
EXTT21=
EXTT22=
EXTT23=
EXTT24=
EXTT25=
EXTT26=
EXTT27=
EXTT28=
PLAYORDER=
